<svg id="7dd690e7-48e6-4332-89ff-fe96fe840729" data-name="Capa 1" xmlns="http://www.w3.org/2000/svg" viewBox="0 0 546.52 438.07"><defs><style>.\36 a0d1642-651b-4f7e-9156-237d875ef62c{stroke:#000;stroke-miterlimit:10;}</style></defs><title>LogoMetaPlan</title><path d="M263,132.5c13-12,4-29,2-32,12-13,2-28,0-31,10-12,1-26-1-29,16-20-4-35-7-37-6-3-17-3-21-3-13,1-20,14-21,17-1,5-1,16-1,16-23,1-19,30-19,32-17-1-18,12-19,15-3,13,0,19,1,21-17,12-9,30-8,32-9,4-7,17-7,19-1,15,12,21,14,22-2,30,12,37,15,38-1,19,12,27,16,28,34,2,46-3,49-4,21-9,9-36,8-39,13-8,1-30,0-32C278,155.5,264,134.5,263,132.5Zm-3,32c2,4,12,21-1,33,2,4,13,28-8,36-6,1-42,8-50-2-2-3-6-3-6-23-3,0-17-4-15-37-3-1-12-3-13-17,0-4-3-13,9-20-2-3-11-19,6-31-2-4-4-10,1-28,3-3,4-7,16-6a3.49,3.49,0,0,0,2-1s-7-29,17-31c2-1,2-2,2-2s-7-31,23-31c0,0,13,0,18,8,1,2,7,18-2,28,2,3,11,16,1,29,3,5,11,19-1,30,3,4,12,18,0,33C262,137.5,272,154.5,260,164.5Z"/><path d="M244,17.5a2,2,0,0,1,2-2c2,0,3,1,3,2v19s0,3-4,3h-5v12h9s7-1,6,6c0,2-1,23-1,23s0,2-3,2a2.15,2.15,0,0,1-2-2v-6h-8v16a3.7,3.7,0,0,1-3,2c-1,0-2-1-2-3v-15s0-4,2-4h13v-14a4.38,4.38,0,0,0-3-1H238v4s0,5-6,5h-5v14s1,5-4,5H203v10h21s5-1,5,4v12h20v-10s0-3,2-3c1,0,3,0,3,3v11s1,4-5,4h-6v15s0,5,2,5h7a2,2,0,0,1,2,2c0,1,0,2-3,2h-9s-4-2-4-5v-3H223v13h11s6-1,6,5v10h13v-9a2,2,0,0,1,2-2c1,0,2,0,2,2v9s0,4-5,4H240v4s0,3-2,3c-1,0-3,0-3-2v-18s0-2-3-2h-9v7a2.94,2.94,0,0,1-3,3c-1,0-2-2-2-4v-13h-7s-4,1-4-4v-21a2,2,0,0,1,2-2c1,0,2,0,2,2v21h7v-5s-1-5,5-5h15v-13h-9v3a2.94,2.94,0,0,1-3,3c-1,0-2,0-2-3v-17a3.7,3.7,0,0,0-3-2H203v9a2.94,2.94,0,0,1-3,3c-1,0-3,0-3-3v-9h-5s-4,0-4-4v-10a2,2,0,0,1,2-2c1,0,3,0,3,2v9h5v-9s0-5,4-5h10v-5h-4s-4,1-4-2c0-1,1-2,3-2h6s3,0,3,4v5h6v-14h-5s-4,0-4-2c0-1,0-3,3-3h6v-10H212s-3,0-3-2c0-1,0-3,3-3h9s5-1,5,6v9h5s4,0,4-4v-16h-5a2,2,0,0,1-2-2c0-1,0-2,2-2h14Z"/><path d="M186,106.5a2,2,0,0,1,2-2c1,0,2,0,2,2v22h12s3,0,3,2c0,1,0,2-3,2h-4v17s0,4-4,4h-4v13h7s3,0,3,2c0,1-2,1-3,1h-8a2.94,2.94,0,0,1-3-3v-13h-8s-3,0-3-2c0-1,0-2,3-2h16v-17h-4s-4,1-4-4Z"/><path d="M205,152.5s0-4,2-4c1,0,3,0,3,4v15a2,2,0,0,0,2,2h11v-9a2,2,0,0,1,2-2c1,0,3,0,3,2v18h21v-4a2,2,0,0,1,2-2c1,0,2,0,2,2v7s0,2-4,2h-8v15h0v1h10s6-1,6,6v14s0,3-2,3c-1,0-2-1-2-3v-3H236s-3,0-3-2c0-1,0-3,2-3h18v-8H241s-5,1-5-5v-15h-8s-5,0-5-5v-5h-5v10s0,4-4,4H203v13s0,3-2,3c-1,0-2,0-2-3v-13h-8s-3,0-3-2c0-1,0-2,2-2h25v-10h-5s-5,0-5-5Z"/><path d="M222,196.5h7a2,2,0,0,0,2-2,2.15,2.15,0,0,0-2-2h-9s-4,0-4,4v21h-7v-13s0-3-1-3-3,0-3,3v13s0,4,4,4h7s0,4,4,4h20a1,1,0,0,0,1-1c0-1,0-2-2-2H220v-26Z"/><path d="M281.48,165c-1,2-13,24,0,32-1,3-13,30,8,39,3,1,15,6,49,4,4-1,17-9,16-28,3-1,17-8,15-38,2-1,15-7,14-22,0-2,2-15-7-19,1-2,9-20-8-32,1-2,4-8,1-21-1-3-2-16-19-15,0-2,4-31-19-32,0,0,0-11-1-16-1-3-8-16-21-17-4,0-15,0-21,3-3,2-23,17-7,37-2,3-11,17-1,29-2,3-12,18,0,31-2,3-11,20,2,32C281.48,134,267.48,155,281.48,165Zm5-33c-12-15-3-29,0-33-12-11-4-25-1-30-10-13-1-26,1-29-9-10-3-26-2-28,5-8,18-8,18-8,30,0,23,31,23,31s0,1,2,2c24,2,17,31,17,31a3.49,3.49,0,0,0,2,1c12-1,13,3,16,6,5,18,3,24,1,28,17,12,8,28,6,31,12,7,9,16,9,20-1,14-10,16-13,17,2,33-12,37-15,37,0,20-4,20-6,23-8,10-44,3-50,2-21-8-10-32-8-36-13-12-3-29-1-33C273.48,154,283.48,137,286.48,132Z"/><path d="M301.48,17a2,2,0,0,0-2-2c-2,0-3,1-3,2V36s0,3,4,3h5V51h-9s-7-1-6,6c0,2,1,23,1,23s0,2,3,2a2.15,2.15,0,0,0,2-2V74h8V90a3.7,3.7,0,0,0,3,2c1,0,2-1,2-3V74s0-4-2-4h-13V56a4.38,4.38,0,0,1,3-1h10v4s0,5,6,5h5V78s-1,5,4,5h20V93h-21s-5-1-5,4v12h-20V99s0-3-2-3c-1,0-3,0-3,3v11s-1,4,5,4h6v15s0,5-2,5h-7a2,2,0,0,0-2,2c0,1,0,2,3,2h9s4-2,4-5v-3h15v13h-11s-6-1-6,5v10h-13v-9a2,2,0,0,0-2-2c-1,0-2,0-2,2v9s0,4,5,4h12v4s0,3,2,3c1,0,3,0,3-2V149s0-2,3-2h9v7a2.94,2.94,0,0,0,3,3c1,0,2-2,2-4V140h7s4,1,4-4V115a2,2,0,0,0-2-2c-1,0-2,0-2,2v21h-7v-5s1-5-5-5h-15V113h9v3a2.94,2.94,0,0,0,3,3c1,0,2,0,2-3V99a3.7,3.7,0,0,1,3-2h18v9a2.94,2.94,0,0,0,3,3c1,0,3,0,3-3V97h5s4,0,4-4V83a2,2,0,0,0-2-2c-1,0-3,0-3,2v9h-5V83s0-5-4-5h-10V73h4s4,1,4-2c0-1-1-2-3-2h-6s-3,0-3,4v5h-6V64h5s4,0,4-2c0-1,0-3-3-3h-6V49h10s3,0,3-2c0-1,0-3-3-3h-9s-5-1-5,6v9h-5s-4,0-4-4V39h5a2,2,0,0,0,2-2c0-1,0-2-2-2h-14Z"/><path d="M359.48,106a2,2,0,0,0-2-2c-1,0-2,0-2,2v22h-12s-3,0-3,2c0,1,0,2,3,2h4v17s0,4,4,4h4v13h-7s-3,0-3,2c0,1,2,1,3,1h8a2.94,2.94,0,0,0,3-3V153h8s3,0,3-2c0-1,0-2-3-2h-16V132h4s4,1,4-4Z"/><path d="M340.48,152s0-4-2-4c-1,0-3,0-3,4v15a2,2,0,0,1-2,2h-11v-9a2,2,0,0,0-2-2c-1,0-3,0-3,2v18h-21v-4a2,2,0,0,0-2-2c-1,0-2,0-2,2v7s0,2,4,2h8v15h0v1h-10s-6-1-6,6v14s0,3,2,3c1,0,2-1,2-3v-3h17s3,0,3-2c0-1,0-3-2-3h-18v-8h12s5,1,5-5V183h8s5,0,5-5v-5h5v10s0,4,4,4h11v13s0,3,2,3c1,0,2,0,2-3V187h8s3,0,3-2c0-1,0-2-2-2h-25V173h5s5,0,5-5Z"/><path d="M323.48,196h-7a2,2,0,0,1-2-2,2.15,2.15,0,0,1,2-2h9s4,0,4,4v21h7V204s0-3,1-3,3,0,3,3v13s0,4-4,4h-7s0,4-4,4h-20a1,1,0,0,1-1-1c0-1,0-2,2-2h19V196Z"/><path class="6a0d1642-651b-4f7e-9156-237d875ef62c" d="M26.46,345S0,332.5,17,280.5c2-3,15-30,36-26,5,1,23,11,19,43-1,8,0,49-28,95-1,7-5,20,9,23,2-1,16-35,31-76,6-14,13-29,13-29l1-1v3l-11,39s-4,16,1,20c4,3,6,8,12-2,4-7,21-46,21-46l1,3s-11,30-10,62c0,8,0,31,13,42,3,2,24,18,34-6,0-4,2-6-4-17-1,7-15,29-29,9-2-7-8-22,5-67,3-11,10-35,10-35s0-10-9-12c-3,1-3-2-9,7-2,4-9,16-9,16l8-32a4.45,4.45,0,0,0-2-5,32.17,32.17,0,0,1-7-4s-5,0-7,3-24,39-24,39l2-14s5-43-14-53c-5-3-29-21-53,8-6,8-26,32-11,63C9,335.5,12,339.5,26.46,345Z"/><path d="M156,401.5c-16,0-10-19-8-22,14,4,21-5,23-8,10-15,1-20-2-22-20-5-31,17-34,22-11,23,5,34,9,36,31,6,39-23,39-23v-6C178,393.5,161,400.5,156,401.5Zm8-45c2,1,4,5,2,9-1,2-5,11-14,6C152,371.5,153,357.5,164,356.5Z"/><path class="6a0d1642-651b-4f7e-9156-237d875ef62c" d="M208,394.5s2-3,3-1,0,8,0,8-10,10-20,6c-3-2-16-6-9-52,2-14,7-40,7-40s-28-8-38-4c-3,0-11,3-12,2s-5-7,3-8,33-2,49,2c1-3,3-12,8-13,3,0,14,0,13,5a81.44,81.44,0,0,0-2,9s36,3,56,0c5-2,6-2,10-6,3-3,8-3,8,1s-3,8-7,11c-3,2-13,9-46,7-8-1-25-3-25-3s-14,38-13,73C194,397.5,199,408.5,208,394.5Z"/><path class="6a0d1642-651b-4f7e-9156-237d875ef62c" d="M266,378.5a2.94,2.94,0,0,1,3-3c2,1,4,0,3,5-1,2-2,24-21,26-4,0-14-1-15-19-4,5-13,21-19,19-4-1-18-6-3-38,3-5,14-34,41-13,0,4-3,11-8,7,0-3,2-7-5-7-5,3-25,27-22,43,3,0,3-1,15-21,2-5,5-13,13-11,4,1,7,1,5,7-1,6-3,21-1,26C256,397.5,258,399.5,266,378.5Z"/><path class="6a0d1642-651b-4f7e-9156-237d875ef62c" d="M478,378.5a2.94,2.94,0,0,1,3-3c2,1,4,0,3,5-1,2-2,24-21,26-4,0-14-1-15-19-4,5-13,21-19,19-4-1-18-6-3-38,3-5,14-34,41-13,0,4-3,11-8,7,0-3,2-7-5-7-5,3-25,27-22,43,3,0,3-1,15-21,2-5,5-13,13-11,4,1,7,1,5,7-1,6-3,21-1,26C468,397.5,470,399.5,478,378.5Z"/><path d="M406,289.5c-3-8-15-29-33-12-4,3-10,12-13,17-1-7-5-47-42-42-6,2-40,7-46,50-1,8-6,49,34,44,0,0-40-5-14-72,8-11,21-27,40-15,5,5,20,10,10,63-1,6-8,45-17,68-1,6-3,13,3,23,4,1,5,4,11-10,3-11,7-21,9-37,4,1,32,10,49-19C400,342.5,415,307.5,406,289.5Zm-11,25c0,5-3,55-45,45,0,0,4-60,25-76C378,281.5,397,275.5,395,314.5Z"/><path class="6a0d1642-651b-4f7e-9156-237d875ef62c" d="M421,384.5s6-1,3,7c-3,6-13,27-29,11-6-10,0-47,0-47s11-46,11-56c6-6,11-6,15-2,1,2,5-3-3,17-4,11-16,45-12,83C409,400.5,413,405.5,421,384.5Z"/><path class="6a0d1642-651b-4f7e-9156-237d875ef62c" d="M494,406.5s2-33,19-39c-3,9-9,49,20,49,6-2,2,1,12-8-7,1-20,4-22-10,0-6-3-13,5-38,1-3,3-8-9-11-3-1-11-4-14,7-2,6-9,22-12,41-2-6-5-11,2-33,2-3,7-7-3-10-3-1-9-4-11,5-1,3-5,19-5,32C476,395.5,476,406.5,494,406.5Z"/></svg>